<?xml version="1.0" encoding="UTF-8" standalone="no"?>
<!-- Created with Inkscape (http://www.inkscape.org/) -->

<svg
   xmlns:dc="http://purl.org/dc/elements/1.1/"
   xmlns:cc="http://creativecommons.org/ns#"
   xmlns:rdf="http://www.w3.org/1999/02/22-rdf-syntax-ns#"
   xmlns:svg="http://www.w3.org/2000/svg"
   xmlns="http://www.w3.org/2000/svg"
   xmlns:sodipodi="http://sodipodi.sourceforge.net/DTD/sodipodi-0.dtd"
   xmlns:inkscape="http://www.inkscape.org/namespaces/inkscape"
   width="256mm"
   height="256mm"
   viewBox="0 0 256.00001 256.00001"
   version="1.1"
   id="svg8"
   sodipodi:docname="nas.svg"
   inkscape:version="0.92.2 5c3e80d, 2017-08-06">
  <defs
     id="defs2" />
  <sodipodi:namedview
     id="base"
     pagecolor="#ffffff"
     bordercolor="#666666"
     borderopacity="1.0"
     inkscape:pageopacity="0.0"
     inkscape:pageshadow="2"
     inkscape:zoom="0.49497475"
     inkscape:cx="79.32432"
     inkscape:cy="168.90219"
     inkscape:document-units="mm"
     inkscape:current-layer="layer1"
     showgrid="false"
     inkscape:window-width="1678"
     inkscape:window-height="1032"
     inkscape:window-x="0"
     inkscape:window-y="16"
     inkscape:window-maximized="0"
     fit-margin-top="0"
     fit-margin-left="0"
     fit-margin-right="0"
     fit-margin-bottom="0" />
  <metadata
     id="metadata5">
    <rdf:RDF>
      <cc:Work
         rdf:about="">
        <dc:format>image/svg+xml</dc:format>
        <dc:type
           rdf:resource="http://purl.org/dc/dcmitype/StillImage" />
        <dc:title></dc:title>
      </cc:Work>
    </rdf:RDF>
  </metadata>
  <g
     inkscape:label="Layer 1"
     inkscape:groupmode="layer"
     id="layer1"
     transform="translate(140.20094,116.51197)">
    <g
       id="g1049"
       transform="matrix(1.5592576,0,0,1.5592576,101.54598,-100.94112)">
      <rect
         ry="12.828938"
         y="41.684555"
         x="-139.96362"
         height="97.566422"
         width="134.02843"
         id="rect1037"
         style="fill:#000000;stroke:#000000;stroke-width:0.47457451;stroke-linejoin:round;stroke-miterlimit:4;stroke-dasharray:none;stroke-opacity:1" />
      <path
         inkscape:connector-curvature="0"
         id="path880-3"
         d="m -8.1375058,40.327937 c -2.1774602,-1.76164 -5.3010702,-3.38114 -7.9470502,-4.12031 -1.63646,-0.45716 -4.39279,-0.48044 -56.885427,-0.48044 -52.492627,0 -55.248947,0.0233 -56.885407,0.48044 -2.40957,0.67313 -5.75894,2.33582 -7.40621,3.67659 -2.5518,2.07699 -2.47287,2.04749 -1.89461,0.708 1.26283,-2.92526 10.00981,-22.12085 11.31604,-24.8335 0.80383,-1.66933 1.9797,-3.76131 2.61303,-4.64884 1.56847,-2.1980199 4.18214,-4.5602999 5.94792,-5.3758399 l 1.46237,-0.67541 23.065274,-0.23533 c 13.012245,-0.13277 32.501155,-0.1378 44.714583,-0.0115 l 21.649304,0.22378 1.76732,0.83728 c 2.33974,1.10848 3.87143,2.56998 5.922883,5.6514999 1.85426,2.78532 2.93756,4.98583 9.83084,19.96955 2.5439902,5.5298 4.6799002,10.14347 4.7464602,10.25261 0.22405,0.36737 -0.0351,0.18512 -2.01732,-1.41853 z"
         style="fill:#000000;stroke-width:0.26458332" />
      <circle
         r="8.1134996"
         cy="64.349693"
         cx="-122.92184"
         id="path956"
         style="fill:#ffffff;stroke-width:0.37862998" />
      <rect
         ry="5.6696429"
         y="51.681366"
         x="-98.432045"
         height="77.300758"
         width="82.31176"
         id="rect1035"
         style="fill:#ffffff;stroke:#ffffff;stroke-width:0.86523747;stroke-linejoin:round;stroke-miterlimit:4;stroke-dasharray:none;stroke-opacity:1" />
      <rect
         ry="5.1026788"
         y="56.961555"
         x="-93.154564"
         height="66.79467"
         width="19.73167"
         id="rect1003"
         style="fill:#000000;stroke:#000000;stroke-width:0.37599999;stroke-linejoin:round;stroke-miterlimit:4;stroke-dasharray:none;stroke-opacity:1" />
      <circle
         r="5.1564999"
         cy="66.94503"
         cx="-83.427574"
         id="path956-6"
         style="fill:#ffffff;stroke-width:0.24063666" />
      <rect
         ry="5.1026788"
         y="56.986568"
         x="-67.349106"
         height="66.79467"
         width="19.73167"
         id="rect1003-3"
         style="fill:#000000;stroke:#000000;stroke-width:0.37599999;stroke-linejoin:round;stroke-miterlimit:4;stroke-dasharray:none;stroke-opacity:1" />
      <circle
         r="5.1564999"
         cy="66.999336"
         cx="-57.372181"
         id="path956-6-7"
         style="fill:#ffffff;stroke-width:0.24063666" />
      <rect
         ry="5.1026788"
         y="56.968262"
         x="-41.264233"
         height="66.79467"
         width="19.73167"
         id="rect1003-3-5"
         style="fill:#000000;stroke:#000000;stroke-width:0.37599999;stroke-linejoin:round;stroke-miterlimit:4;stroke-dasharray:none;stroke-opacity:1" />
      <circle
         r="5.1564999"
         cy="66.928177"
         cx="-31.424425"
         id="path956-6-7-5"
         style="fill:#ffffff;stroke-width:0.24063666" />
    </g>
  </g>
</svg>
