<?xml version="1.0" encoding="utf-8"?>
<!-- Generator: Adobe Illustrator 25.2.3, SVG Export Plug-In . SVG Version: 6.00 Build 0)  -->
<svg version="1.1"
	 id="Layer_1" xmlns:cc="http://creativecommons.org/ns#" xmlns:dc="http://purl.org/dc/elements/1.1/" xmlns:inkscape="http://www.inkscape.org/namespaces/inkscape" xmlns:rdf="http://www.w3.org/1999/02/22-rdf-syntax-ns#" xmlns:sodipodi="http://sodipodi.sourceforge.net/DTD/sodipodi-0.dtd" xmlns:svg="http://www.w3.org/2000/svg"
	 xmlns="http://www.w3.org/2000/svg" xmlns:xlink="http://www.w3.org/1999/xlink" x="0px" y="0px" viewBox="0 0 127.9 128"
	 style="enable-background:new 0 0 127.9 128;" xml:space="preserve">
<style type="text/css">
	.st0{fill:url(#path5005_1_);}
	.st1{opacity:0.55;fill:#FFFFFF;enable-background:new    ;}
	.st2{fill:url(#path5018_1_);}
	.st3{fill:url(#path5025_1_);}
	.st4{opacity:0.4;fill:#231F20;enable-background:new    ;}
	.st5{fill:#FFFFFF;}
</style>
<sodipodi:namedview  bordercolor="#666666" borderopacity="1" gridtolerance="10" guidetolerance="10" id="namedview5042" inkscape:current-layer="Layer_1" inkscape:cx="150" inkscape:cy="100" inkscape:pageopacity="0" inkscape:pageshadow="2" inkscape:window-height="1137" inkscape:window-maximized="1" inkscape:window-width="1920" inkscape:window-x="-8" inkscape:window-y="-8" inkscape:zoom="1.0566667" objecttolerance="10" pagecolor="#ffffff" showgrid="false">
	</sodipodi:namedview>
<g>
	
		<linearGradient id="path5005_1_" gradientUnits="userSpaceOnUse" x1="-76.0812" y1="267.0464" x2="133.8675" y2="57.0977" gradientTransform="matrix(1 0 0 -1 0 191)">
		<stop  offset="0" style="stop-color:#444494"/>
		<stop  offset="0.4883" style="stop-color:#3C67A9"/>
		<stop  offset="1" style="stop-color:#2BA0CC"/>
	</linearGradient>
	<path id="path5005" inkscape:connector-curvature="0" class="st0" d="M60.4,127.2l-38.7-16.1c-2.1-0.9-3.9-2.7-4.8-4.8L0.7,67.3
		c-0.9-2.1-0.9-4.6,0-6.8l16.2-38.8c0.9-2.1,2.6-3.9,4.8-4.8L60.5,0.7c2.1-0.9,4.6-0.9,6.8,0l38.8,16.2c2.1,0.9,3.9,2.6,4.8,4.8
		l16.2,38.8c0.9,2.1,0.9,4.6,0,6.8L111,106.4c-0.9,2.2-2.7,3.9-4.8,4.8l-39,16.1C65,128.1,62.5,128.1,60.4,127.2L60.4,127.2z"/>
	<path id="path5011" inkscape:connector-curvature="0" class="st1" d="M127.1,60.5l-16.2-38.8c-0.9-2.1-2.6-3.9-4.8-4.8L67.3,0.7
		C66.1,0.2,65,0,63.9,0s-2.4,0.2-3.4,0.7L21.7,16.8c-2.1,0.9-3.9,2.6-4.8,4.8L0.7,60.5c-0.9,2.1-0.9,4.6,0,6.8l16.2,39.1
		c0.9,2.1,2.7,3.9,4.8,4.8l38.7,16.1c1.1,0.4,2.2,0.7,3.4,0.7c1.1,0,2.4-0.2,3.4-0.7l39-16.1c2.2-0.9,3.9-2.7,4.8-4.8l16.2-39.1
		C128,65.1,128,62.7,127.1,60.5L127.1,60.5z M119,65.1l-15.4,37.1c-0.3,0.8-1,1.5-1.8,1.7L65,119.2c-0.3,0.1-0.8,0.2-1.2,0.2
		c-0.4,0-0.8-0.1-1.2-0.2L25.8,104c-0.8-0.3-1.5-0.9-1.7-1.7L8.8,65.2c-0.3-0.8-0.3-1.7,0-2.5l15.4-36.9c0.3-0.8,0.9-1.3,1.7-1.7
		L62.7,8.9c0.3-0.1,0.8-0.2,1.2-0.2c0.4,0,0.8,0.1,1.2,0.2L102,24.1c0.8,0.3,1.3,0.9,1.7,1.7l15.3,36.9
		C119.4,63.4,119.4,64.3,119,65.1L119,65.1z"/>
	
		<linearGradient id="path5018_1_" gradientUnits="userSpaceOnUse" x1="63.5509" y1="208.438" x2="63.5509" y2="152.8353" gradientTransform="matrix(1 0 0 -1 0 191)">
		<stop  offset="0" style="stop-color:#F0F0F1"/>
		<stop  offset="1" style="stop-color:#D0D0D0"/>
	</linearGradient>
	<path id="path5018" inkscape:connector-curvature="0" class="st2" d="M95.7,91.1h-9.9c-2.8,0-5.6-1.1-7.5-3.1L63.6,71.4L48.8,87.9
		c-2,2-4.7,3.1-7.5,3.1h-9.9V35.8h10.7v44.6l21.4-23.1L85,80.4V35.8h10.7V91.1z"/>
	
		<linearGradient id="path5025_1_" gradientUnits="userSpaceOnUse" x1="63.6632" y1="208.2615" x2="63.6632" y2="152.6589" gradientTransform="matrix(1 0 0 -1 0 191)">
		<stop  offset="0" style="stop-color:#FFFFFF"/>
		<stop  offset="1" style="stop-color:#EDEDED"/>
	</linearGradient>
	<path id="path5025" inkscape:connector-curvature="0" class="st3" d="M95.7,91.3h-9.9c-2.8,0-5.6-1.1-7.5-3.1L63.6,71.6L49,88.1
		c-2,2-4.7,3.1-7.5,3.1h-9.9V36h10.7v44.6l21.4-23.1l21.4,23.1V36h10.7v55.2H95.7z"/>
	<path id="path5027" inkscape:connector-curvature="0" class="st4" d="M78.3,87.9L63.6,71.4L48.8,87.9c-2,2-4.7,3.1-7.5,3.1h-9.9
		v1.6h9.9c2.8,0,5.6-1.1,7.5-3.1L63.6,73l14.7,16.5c2,2,4.7,3.1,7.5,3.1h9.9v-1.6h-9.9C83.1,91.1,80.3,89.9,78.3,87.9z"/>
	<g id="g5035" transform="translate(0,100)">
		<polygon id="polygon5029" class="st5" points="63.7,-42.7 42.2,-19.6 42.2,-19 63.7,-42.2 85,-19 85,-19.6 		"/>
		<rect id="rect5031" x="31.6" y="-64.2" class="st5" width="10.7" height="0.6"/>
		<rect id="rect5033" x="85" y="-64.2" class="st5" width="10.7" height="0.6"/>
	</g>
</g>
</svg>
