<?xml version="1.0" encoding="utf-8"?>
<!-- Generator: Adobe Illustrator 25.2.3, SVG Export Plug-In . SVG Version: 6.00 Build 0)  -->
<svg version="1.1" baseProfile="basic" id="svg" xmlns="http://www.w3.org/2000/svg" xmlns:xlink="http://www.w3.org/1999/xlink"
	 x="0px" y="0px" viewBox="0 0 106.6 106.6" xml:space="preserve">
<style type="text/css">
	.st0{fill:url(#SVGID_1_);}
	.st1{fill:#FFFFFF;}
	.st2{fill:#31A8DA;}
	.st3{fill:#96BD20;}
	.st4{fill:#FCCD38;}
	.st5{fill:#CC3333;}
</style>
<linearGradient id="SVGID_1_" gradientUnits="userSpaceOnUse" x1="53.3" y1="768.6" x2="53.3" y2="662" gradientTransform="matrix(1 0 0 1 0 -662)">
	<stop  offset="0" style="stop-color:#41A737"/>
	<stop  offset="1" style="stop-color:#C4DA83"/>
</linearGradient>
<rect class="st0" width="106.6" height="106.6"/>
<path id="path2_2_" class="st1" d="M45.8,8.8c-0.4,0.1-0.7,0.3-0.7,0.5c-0.1,0.4-0.8,0.7-2,0.7c-0.8,0-1.1,0.1-1.2,0.3
	c-0.1,0.1-0.5,0.4-0.8,0.6c-0.4,0.2-0.9,0.6-1.1,0.8c-0.2,0.2-0.5,0.4-0.6,0.4s-0.4,0.2-0.6,0.4c-0.2,0.2-0.6,0.4-0.9,0.5
	c-0.2,0.1-0.7,0.4-1,0.7c-0.3,0.3-0.7,0.5-0.9,0.6c-0.2,0-0.4,0.2-0.5,0.4c-0.1,0.2-0.3,0.5-0.5,0.6s-0.4,0.4-0.5,0.6
	c-0.1,0.2-0.3,0.4-0.5,0.4c-0.2,0.1-0.4,0.2-0.5,0.6c-0.1,0.3-0.4,0.6-0.5,0.8c-0.2,0.2-0.5,0.6-0.6,1c-0.2,0.4-0.4,0.8-0.5,0.9
	c-0.3,0.2-0.5,1.1-0.7,2.8c-0.2,2-0.2,2.8,0.2,7.6c0.2,2.3,0.1,3.2-0.3,3.5c-0.8,0.7-0.2,5.4,0.8,6.6c0.2,0.2,0.4,0.6,0.5,0.8
	s0.3,0.5,0.4,0.6c0.1,0.1,0.4,0.6,0.5,1c0.1,0.5,0.5,1.2,0.8,1.7s0.5,0.9,0.5,1s0.1,0.3,0.3,0.6c1.2,1.7,0.2,4.9-1.9,5.7
	c-0.2,0.1-0.5,0.3-0.6,0.4c-0.1,0.2-0.5,0.4-0.9,0.5s-0.9,0.4-1.2,0.6c-0.3,0.2-0.9,0.5-1.3,0.6c-0.4,0.1-1,0.3-1.4,0.5
	c-0.3,0.2-0.9,0.4-1.4,0.5c-0.4,0.1-0.9,0.3-1.1,0.4c-0.3,0.3-0.7,0.5-1.8,0.6c-0.6,0.1-1.1,0.3-1.4,0.5c-0.3,0.2-0.7,0.4-0.9,0.5
	c-0.3,0.1-0.7,0.4-1,0.6s-0.7,0.5-0.8,0.6c-0.2,0.1-0.4,0.3-0.5,0.5c-0.1,0.2-0.3,0.5-0.6,0.7c-0.3,0.2-0.5,0.6-0.7,1.1
	c-0.2,0.4-0.4,0.9-0.6,1c-0.2,0.2-0.4,0.6-0.5,1.1c-0.1,0.5-0.4,1-0.5,1.3c-0.2,0.3-0.4,0.8-0.5,1.5c-0.1,0.6-0.3,1.3-0.5,1.6
	c-0.3,0.4-0.4,0.8-0.5,1.9c-0.2,1.7-0.4,2.5-0.7,3.3c-0.2,0.4-0.3,1.3-0.5,3.3c-0.1,1.5-0.3,3.5-0.4,4.5c-0.5,4.3-0.1,7,1.1,7.6
	c0.3,0.1,0.6,0.3,0.7,0.5c0.1,0.1,0.5,0.3,0.8,0.4c1.1,0.4,1.9,0.7,2.1,0.8c0.1,0.1,0.8,0.3,1.5,0.4c0.8,0.2,1.4,0.4,1.6,0.5
	c0.3,0.2,0.7,0.3,1.7,0.5c0.7,0.1,1.7,0.3,2.2,0.5s1.6,0.4,2.5,0.5c1.7,0.2,2.4,0.4,3.6,0.7c0.8,0.2,2.7,0.5,5.2,0.7
	c1.2,0.1,2.2,0.3,3.1,0.5l1.3,0.3h7.6c7.5,0,7.6,0,8.5-0.3c1.1-0.4,2-0.5,4-0.7c1.9-0.2,2.4-0.2,2.8-0.5c0.4-0.2,1.3-0.4,3.2-0.7
	c0.8-0.1,1.8-0.4,2.1-0.5c0.3-0.1,1.1-0.4,1.8-0.5c0.7-0.1,1.4-0.3,1.6-0.5c0.3-0.2,0.9-0.4,1.6-0.5c0.6-0.1,1.2-0.3,1.3-0.4
	c0.2-0.2,1.4-0.8,1.7-0.8c0.1,0,0.3-0.1,0.3-0.3c0-0.1,0.3-0.4,0.5-0.6c0.7-0.6,0.8-0.9,0.8-5.5c0-4.2-0.2-6.4-0.6-7.5
	c-0.1-0.3-0.4-1.6-0.6-2.9s-0.4-2.4-0.5-2.5c-0.2-0.3-0.6-1.7-0.7-2.4c-0.1-0.4-0.2-0.9-0.4-1.2c-0.2-0.3-0.4-0.9-0.5-1.5
	c-0.1-0.5-0.3-1.1-0.5-1.3c-0.1-0.2-0.4-0.8-0.5-1.2c-0.2-0.5-0.4-1-0.7-1.3c-1.1-1.2-1.9-1.9-2.1-2c-0.1,0-0.5-0.2-0.7-0.4
	c-0.2-0.2-0.7-0.5-1-0.6s-0.8-0.4-1.1-0.6c-0.3-0.2-0.8-0.5-1.2-0.6c-0.4-0.1-0.8-0.4-1-0.5c-0.2-0.2-0.7-0.4-1.2-0.5
	c-0.4-0.1-1.1-0.3-1.3-0.5c-0.3-0.2-0.9-0.4-1.4-0.5c-0.6-0.2-1.3-0.4-1.6-0.6s-0.9-0.4-1.4-0.6c-0.5-0.2-1-0.4-1.2-0.6
	c-0.2-0.2-0.6-0.5-0.9-0.6S56.3,51,56.3,51s-0.2-0.3-0.4-0.6c-1.1-1.3-1.2-4-0.3-4.8c0.1-0.1,0.4-0.6,0.7-1.1c0.3-0.5,0.5-1,0.6-1
	s0.3-0.4,0.4-0.8c0.1-0.4,0.4-0.9,0.6-1.2s0.5-0.7,0.6-0.9s0.3-0.6,0.5-0.8c0.1-0.2,0.3-0.9,0.4-1.5s0.3-1.5,0.5-2
	c0.4-1.2,0.4-2.4,0.1-3.1c-0.6-1.1-0.6-1.6,0-3.2c0.6-1.7,0.7-7.7,0.1-8.5c-0.1-0.1-0.3-0.6-0.5-1.2c-0.2-0.6-0.5-1.2-0.6-1.4
	c-0.1-0.2-0.4-0.6-0.5-0.8c-0.1-0.3-0.4-0.6-0.7-0.8c-0.2-0.1-0.5-0.4-0.6-0.6s-0.3-0.4-0.5-0.5c-0.2-0.1-0.5-0.3-0.8-0.5
	c-0.2-0.2-0.6-0.4-0.9-0.5s-0.7-0.3-0.9-0.5c-0.2-0.2-0.8-0.4-1.2-0.6c-0.4-0.1-0.9-0.4-1.1-0.5c-0.2-0.2-0.7-0.4-1.1-0.5
	c-0.4-0.1-0.9-0.3-1-0.5c-0.2-0.2-0.6-0.5-0.9-0.7c-0.7-0.5-0.9-0.8-1.3-2.1C47.3,8.7,46.8,8.4,45.8,8.8 M46.7,15
	c0.2,0.1,0.4,0.3,0.5,0.4c1.5,1.3,2.1,1.6,3.1,1.6c0.4,0,3,1.4,3.2,1.7c0.1,0.1,0.4,0.3,0.6,0.5c0.2,0.1,0.5,0.4,0.6,0.6
	s0.3,0.4,0.4,0.4c0.3,0,1.7,1.5,1.8,1.9c0,0.2,0.3,0.7,0.5,1.2c0.6,1.3,0.6,4.4,0.1,6c-0.2,0.5-0.4,1.4-0.5,1.9s-0.3,1.1-0.4,1.2
	c-0.2,0.3-0.1,0.8,0.4,1.8c0.4,0.8,0.5,1.4,0.3,2.5c-0.1,0.3-0.2,0.9-0.3,1.4c-0.1,0.4-0.2,0.8-0.3,0.9c-0.1,0.1-0.2,0.2-0.2,0.3
	s-0.1,0.2-0.2,0.2c-0.1,0.1-0.4,0.4-0.6,0.7S55.1,40.9,55,41c-0.2,0.1-0.3,0.3-0.3,0.4c0,0.1-0.2,0.6-0.5,1c-0.3,0.5-0.5,0.9-0.5,1
	s-0.2,0.4-0.4,0.6c-0.2,0.2-0.6,0.8-0.8,1.3s-0.5,0.9-0.6,1c-0.2,0.1-0.2,2.2,0.1,2.6c0.1,0.2,0.3,0.7,0.4,1.2
	c0.2,0.9,0.8,2.1,1,2.1c0.1,0,0.2,0.2,0.3,0.4c0.1,0.2,0.4,0.5,0.7,0.7c0.3,0.2,0.5,0.4,0.6,0.5c0,0.1,0.5,0.3,0.9,0.5
	c0.5,0.2,1.1,0.4,1.4,0.6s1.2,0.5,1.9,0.6c0.7,0.2,1.5,0.4,1.7,0.6c0.2,0.1,0.7,0.3,1,0.4c0.7,0.2,1.4,0.5,1.7,0.7
	c0.1,0.1,0.5,0.3,1,0.4c0.4,0.1,1.1,0.4,1.5,0.7c0.4,0.3,0.8,0.5,0.9,0.5s0.3,0.2,0.5,0.4c0.2,0.2,0.3,0.4,0.4,0.4
	c0.2,0,0.7,0.5,0.8,0.8c0,0.1,0.2,0.4,0.4,0.5c0.3,0.2,0.4,0.5,0.5,1c0.1,0.4,0.3,0.9,0.5,1.1c0.3,0.4,0.4,0.7,0.7,2.1
	c0.1,0.4,0.2,0.7,0.3,0.8c0.3,0.3,0.5,1.2,0.8,2.4c0.1,0.6,0.3,1.4,0.5,1.8c0.4,0.8,0.4,1,0.6,2.8c0.1,1,0.2,1.7,0.4,2
	c0.6,1.3,0.7,7.8,0.2,8.5c-0.2,0.2-0.4,0.5-0.5,0.8c-0.1,0.2-0.3,0.5-0.5,0.6s-0.5,0.3-0.7,0.6c-0.3,0.3-0.7,0.5-1.2,0.6
	c-0.4,0.1-0.9,0.2-1,0.3c-0.3,0.3-1.1,0.5-2.1,0.7c-0.5,0.1-1,0.2-1.1,0.3c-0.4,0.3-1.1,0.5-2.2,0.7c-0.6,0.1-1.4,0.3-1.9,0.5
	c-0.6,0.3-1.2,0.4-2.6,0.6c-1,0.1-2.2,0.3-2.7,0.5c-2.6,0.8-15.6,0.8-19.1,0c-0.8-0.2-2.7-0.4-5-0.7c-0.6-0.1-1.3-0.2-1.8-0.4
	C30.6,88.3,30,88.1,29,88c-1.6-0.2-2.2-0.3-2.6-0.6c-0.2-0.2-0.6-0.3-1.1-0.3c-1.1-0.1-2.7-0.5-3-0.8c-0.1-0.1-0.6-0.2-1-0.3
	c-1-0.2-1.6-0.4-2-0.8c-0.1-0.1-0.5-0.3-0.8-0.4c-0.5-0.2-1.1-0.7-1.4-1.3c-0.5-1-0.3-7.6,0.4-9.9c0.1-0.4,0.3-1.5,0.4-2.6
	c0.2-1.9,0.6-4.1,0.8-4.3c0.1-0.1,0.2-0.6,0.3-1.2c0.2-1.1,0.5-1.7,0.8-2c0.1-0.1,0.2-0.4,0.3-0.7c0.2-0.6,1-1.8,1.5-2
	c0.2-0.1,0.4-0.3,0.4-0.4c0.1-0.3,1.2-1.3,1.8-1.6c0.2-0.1,0.5-0.3,0.5-0.4c0.1-0.2,0.8-0.6,1.4-0.7c0.3,0,0.8-0.3,1.1-0.5
	s0.9-0.5,1.3-0.6c0.4-0.1,1-0.3,1.2-0.5c0.3-0.2,0.9-0.4,1.4-0.6c0.5-0.1,1.1-0.4,1.3-0.5s0.9-0.4,1.5-0.6c0.7-0.2,1.2-0.4,1.3-0.6
	c0.1-0.1,0.4-0.4,0.7-0.5s0.5-0.4,0.6-0.5c0-0.1,0.2-0.4,0.4-0.5c0.3-0.2,1.3-2.3,1.5-3.3c0.3-1.1,0.1-3.1-0.4-3.7
	c-0.2-0.3-0.5-0.8-0.6-1s-0.3-0.7-0.5-1.1c-0.2-0.4-0.4-0.9-0.5-1.3c-0.2-0.7-0.8-1.7-1.3-2.2c-1.3-1.2-1.9-3.9-1.2-5.2
	c0.5-0.8,0.5-1.8,0.2-4.2c-0.5-3.8-0.2-7.1,0.8-8.7c0.3-0.4,0.5-0.8,0.5-0.9c0-0.1,0.5-0.7,1.6-1.9c0.6-0.7,0.9-0.9,2.1-1.7
	c0.4-0.2,0.7-0.6,0.9-0.7c0.1-0.1,0.4-0.3,0.6-0.4c0.2-0.1,0.5-0.3,0.7-0.4c0.6-0.4,1.4-0.4,1.9-0.1l0.4,0.3l0.5-0.3
	c0.3-0.1,0.8-0.3,1.1-0.3s0.8-0.1,1-0.2C46.3,14.7,46.3,14.7,46.7,15"/>
<g>
	<rect x="84.7" y="79.9" class="st2" width="21.9" height="26.6"/>
	<rect x="84.7" y="53.3" class="st3" width="21.9" height="26.6"/>
	<rect x="84.7" y="26.7" class="st4" width="21.9" height="26.6"/>
	<rect x="84.7" class="st5" width="21.9" height="26.6"/>
</g>
</svg>
