<?xml version="1.0" encoding="utf-8"?>
<!-- Generator: Adobe Illustrator 25.2.3, SVG Export Plug-In . SVG Version: 6.00 Build 0)  -->
<svg version="1.1" baseProfile="basic" id="Icon" xmlns="http://www.w3.org/2000/svg" xmlns:xlink="http://www.w3.org/1999/xlink"
	 x="0px" y="0px" viewBox="0 0 128 127.7" xml:space="preserve">
<style type="text/css">
	.st0{fill:url(#SVGID_1_);}
	.st1{opacity:0.67;fill:url(#SVGID_2_);}
	.st2{fill:url(#SVGID_3_);}
	.st3{fill:url(#SVGID_4_);}
	.st4{fill:url(#SVGID_5_);}
	.st5{fill:url(#SVGID_6_);}
	.st6{opacity:0.67;fill:url(#SVGID_7_);}
	.st7{fill:url(#SVGID_8_);}
	.st8{fill:url(#SVGID_9_);}
	.st9{fill:url(#SVGID_10_);}
	.st10{fill:url(#SVGID_11_);}
	.st11{fill:url(#SVGID_12_);}
	.st12{opacity:0.53;fill:url(#SVGID_13_);}
	.st13{opacity:0.53;fill:url(#SVGID_14_);}
	.st14{fill:url(#SVGID_15_);}
	.st15{fill:url(#SVGID_16_);}
	.st16{fill:url(#SVGID_17_);}
	.st17{fill:url(#SVGID_18_);}
</style>
<g>
	
		<radialGradient id="SVGID_1_" cx="-1244.7413" cy="160.0427" r="0" gradientTransform="matrix(1 0 0 1 1258.4413 -129.4427)" gradientUnits="userSpaceOnUse">
		<stop  offset="0" style="stop-color:#FFF44F"/>
		<stop  offset="0.2949" style="stop-color:#FF980E"/>
		<stop  offset="0.4315" style="stop-color:#FF5D36"/>
		<stop  offset="0.5302" style="stop-color:#FF3750"/>
		<stop  offset="0.7493" style="stop-color:#F5156C"/>
		<stop  offset="0.7648" style="stop-color:#F1136E"/>
		<stop  offset="0.8801" style="stop-color:#DA057A"/>
		<stop  offset="0.9528" style="stop-color:#D2007F"/>
	</radialGradient>
	<path class="st0" d="M13.7,30.6L13.7,30.6L13.7,30.6z"/>
	
		<radialGradient id="SVGID_2_" cx="-1244.7413" cy="160.0427" r="0" gradientTransform="matrix(1 0 0 1 1258.4413 -129.4427)" gradientUnits="userSpaceOnUse">
		<stop  offset="0" style="stop-color:#B5007F"/>
		<stop  offset="1" style="stop-color:#F5156C;stop-opacity:0"/>
	</radialGradient>
	<path class="st1" d="M13.7,30.6L13.7,30.6L13.7,30.6z"/>
	
		<radialGradient id="SVGID_3_" cx="-1244.7413" cy="160.0427" r="0" gradientTransform="matrix(1 0 0 1 1258.4413 -129.4427)" gradientUnits="userSpaceOnUse">
		<stop  offset="0" style="stop-color:#FFDD00;stop-opacity:0.6"/>
		<stop  offset="8.366717e-02" style="stop-color:#FFD801;stop-opacity:0.5244"/>
		<stop  offset="0.1822" style="stop-color:#FECA05;stop-opacity:0.4353"/>
		<stop  offset="0.2884" style="stop-color:#FEB20C;stop-opacity:0.3394"/>
		<stop  offset="0.3998" style="stop-color:#FD9115;stop-opacity:0.2388"/>
		<stop  offset="0.5154" style="stop-color:#FB6621;stop-opacity:0.1343"/>
		<stop  offset="0.6329" style="stop-color:#F9332F;stop-opacity:2.816397e-02"/>
		<stop  offset="0.664" style="stop-color:#F92433;stop-opacity:0"/>
	</radialGradient>
	<path class="st2" d="M13.7,30.6L13.7,30.6L13.7,30.6z"/>
</g>
<g>
	
		<radialGradient id="SVGID_4_" cx="13.7" cy="692.9323" r="0" gradientTransform="matrix(1 0 0 1 0 -662.3323)" gradientUnits="userSpaceOnUse">
		<stop  offset="0.1528" style="stop-color:#960E18"/>
		<stop  offset="0.2061" style="stop-color:#CC2335;stop-opacity:0.5541"/>
		<stop  offset="0.2495" style="stop-color:#F13148;stop-opacity:0.1914"/>
		<stop  offset="0.2724" style="stop-color:#FF3750;stop-opacity:0"/>
	</radialGradient>
	<path class="st3" d="M13.7,30.6L13.7,30.6L13.7,30.6z"/>
	
		<radialGradient id="SVGID_5_" cx="13.7" cy="692.9323" r="0" gradientTransform="matrix(1 0 0 1 0 -662.3323)" gradientUnits="userSpaceOnUse">
		<stop  offset="0.1129" style="stop-color:#960E18"/>
		<stop  offset="0.1893" style="stop-color:#CC2335;stop-opacity:0.5541"/>
		<stop  offset="0.2515" style="stop-color:#F13148;stop-opacity:0.1914"/>
		<stop  offset="0.2843" style="stop-color:#FF3750;stop-opacity:0"/>
	</radialGradient>
	<path class="st4" d="M13.7,30.6L13.7,30.6L13.7,30.6z"/>
</g>
<g>
	
		<radialGradient id="SVGID_6_" cx="-1144.0135" cy="154.1034" r="144.5981" fx="-1138.8417" fy="151.5472" gradientTransform="matrix(1 0 0 1 1258.4413 -129.4427)" gradientUnits="userSpaceOnUse">
		<stop  offset="0" style="stop-color:#FFF44F"/>
		<stop  offset="0.2949" style="stop-color:#FF980E"/>
		<stop  offset="0.4315" style="stop-color:#FF5D36"/>
		<stop  offset="0.5302" style="stop-color:#FF3750"/>
		<stop  offset="0.7493" style="stop-color:#F5156C"/>
		<stop  offset="0.7648" style="stop-color:#F1136E"/>
		<stop  offset="0.8801" style="stop-color:#DA057A"/>
		<stop  offset="0.9528" style="stop-color:#D2007F"/>
	</radialGradient>
	<path class="st5" d="M115.1,25.1c-4.9-6.5-11-11.8-17.7-15.9c-0.3-0.2-0.7-0.1-1,0.1l0,0c-0.4,0.4-0.3,1,0.1,1.2
		c12.6,8.1,22.3,21.3,24.5,38.8c4.6,35.6-20.2,65.3-55.2,65.4C27.4,114.9,4,80.9,10.1,50.4c0.3-1.5,0.2-3,0.7-4.5
		c0.3-5.4,2.3-13.8,6.7-22.4C13,25.8,7.4,33.1,4.6,39.8C0.6,49.4-0.8,61,0.5,72c0.1,0.8,0.2,1.6,0.3,2.5
		c5.2,30.3,31.5,53.3,63.3,53.2c35.4-0.1,64.1-29.1,64-64.5C127.9,48.9,123.1,35.7,115.1,25.1z"/>
	
		<radialGradient id="SVGID_7_" cx="-1247.8529" cy="166.5864" r="83.5145" fx="-1244.8658" fy="165.1102" gradientTransform="matrix(1 0 0 1 1258.4413 -129.4427)" gradientUnits="userSpaceOnUse">
		<stop  offset="0" style="stop-color:#B5007F"/>
		<stop  offset="1" style="stop-color:#F5156C;stop-opacity:0"/>
	</radialGradient>
	<path class="st6" d="M115.1,25.1c-4.9-6.5-11-11.8-17.7-15.9c-0.3-0.2-0.7-0.1-1,0.1l0,0c-0.4,0.4-0.3,1,0.1,1.2
		c12.6,8.1,22.3,21.3,24.5,38.8c4.6,35.6-20.2,65.3-55.2,65.4C27.4,114.9,4,80.9,10.1,50.4c0.3-1.5,0.2-3,0.7-4.5
		c0.3-5.4,2.3-13.8,6.7-22.4C13,25.8,7.4,33.1,4.6,39.8C0.6,49.4-0.8,61,0.5,72c0.1,0.8,0.2,1.6,0.3,2.5
		c5.2,30.3,31.5,53.3,63.3,53.2c35.4-0.1,64.1-29.1,64-64.5C127.9,48.9,123.1,35.7,115.1,25.1z"/>
	
		<radialGradient id="SVGID_8_" cx="-1131.5977" cy="153.3298" r="158.4101" fx="-1125.9316" fy="150.5294" gradientTransform="matrix(1 0 0 1 1258.4413 -129.4427)" gradientUnits="userSpaceOnUse">
		<stop  offset="0" style="stop-color:#FFDD00;stop-opacity:0.6"/>
		<stop  offset="8.366717e-02" style="stop-color:#FFD801;stop-opacity:0.5244"/>
		<stop  offset="0.1822" style="stop-color:#FECA05;stop-opacity:0.4353"/>
		<stop  offset="0.2884" style="stop-color:#FEB20C;stop-opacity:0.3394"/>
		<stop  offset="0.3998" style="stop-color:#FD9115;stop-opacity:0.2388"/>
		<stop  offset="0.5154" style="stop-color:#FB6621;stop-opacity:0.1343"/>
		<stop  offset="0.6329" style="stop-color:#F9332F;stop-opacity:2.816397e-02"/>
		<stop  offset="0.664" style="stop-color:#F92433;stop-opacity:0"/>
	</radialGradient>
	<path class="st7" d="M115.1,25.1c-4.9-6.5-11-11.8-17.7-15.9c-0.3-0.2-0.7-0.1-1,0.1l0,0c-0.4,0.4-0.3,1,0.1,1.2
		c12.6,8.1,22.3,21.3,24.5,38.8c4.6,35.6-20.2,65.3-55.2,65.4C27.4,114.9,4,80.9,10.1,50.4c0.3-1.5,0.2-3,0.7-4.5
		c0.3-5.4,2.3-13.8,6.7-22.4C13,25.8,7.4,33.1,4.6,39.8C0.6,49.4-0.8,61,0.5,72c0.1,0.8,0.2,1.6,0.3,2.5
		c5.2,30.3,31.5,53.3,63.3,53.2c35.4-0.1,64.1-29.1,64-64.5C127.9,48.9,123.1,35.7,115.1,25.1z"/>
</g>
<g>
	
		<radialGradient id="SVGID_9_" cx="-1190.8062" cy="204.5252" r="212.8313" gradientTransform="matrix(1 0 0 1 1258.4413 -129.4427)" gradientUnits="userSpaceOnUse">
		<stop  offset="0.1528" style="stop-color:#960E18"/>
		<stop  offset="0.2061" style="stop-color:#CC2335;stop-opacity:0.5541"/>
		<stop  offset="0.2495" style="stop-color:#F13148;stop-opacity:0.1914"/>
		<stop  offset="0.2724" style="stop-color:#FF3750;stop-opacity:0"/>
	</radialGradient>
	<path class="st8" d="M115.1,25.1c-4.9-6.5-11-11.8-17.7-15.9c-0.3-0.2-0.7-0.1-1,0.1l0,0c-0.4,0.4-0.3,1,0.1,1.2
		c12.6,8.1,22.3,21.3,24.5,38.8c4.6,35.6-20.2,65.3-55.2,65.4C27.4,114.9,4,80.9,10.1,50.4c0.3-1.5,0.2-3,0.7-4.5
		c0.3-5.4,2.3-13.8,6.7-22.4C13,25.8,7.4,33.1,4.6,39.8C0.6,49.4-0.8,61,0.5,72c0.1,0.8,0.2,1.6,0.3,2.5
		c5.2,30.3,31.5,53.3,63.3,53.2c35.4-0.1,64.1-29.1,64-64.5C127.9,48.9,123.1,35.7,115.1,25.1z"/>
	
		<radialGradient id="SVGID_10_" cx="-1207.4563" cy="201.9556" r="214.3133" gradientTransform="matrix(1 0 0 1 1258.4413 -129.4427)" gradientUnits="userSpaceOnUse">
		<stop  offset="0.1129" style="stop-color:#960E18"/>
		<stop  offset="0.1893" style="stop-color:#CC2335;stop-opacity:0.5541"/>
		<stop  offset="0.2515" style="stop-color:#F13148;stop-opacity:0.1914"/>
		<stop  offset="0.2843" style="stop-color:#FF3750;stop-opacity:0"/>
	</radialGradient>
	<path class="st9" d="M115.1,25.1c-4.9-6.5-11-11.8-17.7-15.9c-0.3-0.2-0.7-0.1-1,0.1l0,0c-0.4,0.4-0.3,1,0.1,1.2
		c12.6,8.1,22.3,21.3,24.5,38.8c4.6,35.6-20.2,65.3-55.2,65.4C27.4,114.9,4,80.9,10.1,50.4c0.3-1.5,0.2-3,0.7-4.5
		c0.3-5.4,2.3-13.8,6.7-22.4C13,25.8,7.4,33.1,4.6,39.8C0.6,49.4-0.8,61,0.5,72c0.1,0.8,0.2,1.6,0.3,2.5
		c5.2,30.3,31.5,53.3,63.3,53.2c35.4-0.1,64.1-29.1,64-64.5C127.9,48.9,123.1,35.7,115.1,25.1z"/>
</g>
<g>
	
		<radialGradient id="SVGID_11_" cx="-1230.0431" cy="622.2621" r="140.4463" fx="-1225.0198" fy="619.7792" gradientTransform="matrix(0.9589 0 0 0.9589 1290.858 -576.2146)" gradientUnits="userSpaceOnUse">
		<stop  offset="0" style="stop-color:#FF980E"/>
		<stop  offset="0.295" style="stop-color:#FF7139"/>
		<stop  offset="0.4846" style="stop-color:#FF5B51"/>
		<stop  offset="0.626" style="stop-color:#FF4F5E"/>
		<stop  offset="0.7365" style="stop-color:#FF4055"/>
		<stop  offset="0.8428" style="stop-color:#FF3750"/>
	</radialGradient>
	<path class="st10" d="M122.6,47.6C120.5,29,110,16.2,96.7,8.8c-2.2-1.2-5-0.7-6.7,1.3l0,0c15.2,9.4,24.8,26,25.3,43.3
		c0.6,21.1-16.7,37.9-36.7,38.9C64.2,93,50.5,86,43.8,72c-1.5-3.1-2.6-6.3-3.1-10.1c-3.2-21.3,11.2-39.5,24.3-44
		c-7.1-6.2-24.9-5.8-38.1,4c-9.5,7-15.7,17.6-17.8,30.3C7.6,61.9,9,72,12.8,80.9c3.9,9.2,10.2,17.2,18.3,23.2
		c8.7,6.5,19.1,10.2,29.9,11c1.6,0.1,3.2,0.2,4.8,0.2C108.2,115.4,126.5,83.3,122.6,47.6z"/>
	
		<radialGradient id="SVGID_12_" cx="-1230.0431" cy="627.4244" r="133.2329" fx="-1225.2777" fy="625.0691" gradientTransform="matrix(0.9589 0 0 0.9589 1290.858 -576.2146)" gradientUnits="userSpaceOnUse">
		<stop  offset="8.407452e-02" style="stop-color:#FFDE08"/>
		<stop  offset="0.2081" style="stop-color:#FFD609;stop-opacity:0.832"/>
		<stop  offset="0.4033" style="stop-color:#FFBF0B;stop-opacity:0.5677"/>
		<stop  offset="0.6437" style="stop-color:#FF9B0F;stop-opacity:0.242"/>
		<stop  offset="0.8224" style="stop-color:#FF7B12;stop-opacity:0"/>
	</radialGradient>
	<path class="st11" d="M122.6,47.6C120.5,29,110,16.2,96.7,8.8c-2.2-1.2-5-0.7-6.7,1.3l0,0c15.2,9.4,24.8,26,25.3,43.3
		c0.6,21.1-16.7,37.9-36.7,38.9C64.2,93,50.5,86,43.8,72c-1.5-3.1-2.6-6.3-3.1-10.1c-3.2-21.3,11.2-39.5,24.3-44
		c-7.1-6.2-24.9-5.8-38.1,4c-9.5,7-15.7,17.6-17.8,30.3C7.6,61.9,9,72,12.8,80.9c3.9,9.2,10.2,17.2,18.3,23.2
		c8.7,6.5,19.1,10.2,29.9,11c1.6,0.1,3.2,0.2,4.8,0.2C108.2,115.4,126.5,83.3,122.6,47.6z"/>
</g>
<g>
	
		<radialGradient id="SVGID_13_" cx="-989.3164" cy="39.9548" r="67.0636" gradientTransform="matrix(0.2371 0.9291 -0.9696 0.2474 353.1776 974.4131)" gradientUnits="userSpaceOnUse">
		<stop  offset="0.3634" style="stop-color:#FF3750"/>
		<stop  offset="0.4111" style="stop-color:#FF444B;stop-opacity:0.7895"/>
		<stop  offset="0.5902" style="stop-color:#FF7139;stop-opacity:0"/>
	</radialGradient>
	<path class="st12" d="M122.6,47.6C120.5,29,110,16.2,96.7,8.8c-2.2-1.2-5-0.7-6.7,1.3l0,0c15.2,9.4,24.8,26,25.3,43.3
		c0.6,21.1-16.7,37.9-36.7,38.9C64.2,93,50.5,86,43.8,72c-1.5-3.1-2.6-6.3-3.1-10.1c-3.2-21.3,11.2-39.5,24.3-44
		c-7.1-6.2-24.9-5.8-38.1,4c-9.5,7-15.7,17.6-17.8,30.3C7.6,61.9,9,72,12.8,80.9c3.9,9.2,10.2,17.2,18.3,23.2
		c8.7,6.5,19.1,10.2,29.9,11c1.6,0.1,3.2,0.2,4.8,0.2C108.2,115.4,126.5,83.3,122.6,47.6z"/>
	
		<radialGradient id="SVGID_14_" cx="-1033.458" cy="23.0341" r="67.8298" gradientTransform="matrix(0.2371 0.9291 -0.9299 0.2373 334.7982 1025.1461)" gradientUnits="userSpaceOnUse">
		<stop  offset="0.2159" style="stop-color:#FF3750;stop-opacity:0.8"/>
		<stop  offset="0.2702" style="stop-color:#FF444B;stop-opacity:0.6316"/>
		<stop  offset="0.4739" style="stop-color:#FF7139;stop-opacity:0"/>
	</radialGradient>
	<path class="st13" d="M122.6,47.6C120.5,29,110,16.2,96.7,8.8c-2.2-1.2-5-0.7-6.7,1.3l0,0c15.2,9.4,24.8,26,25.3,43.3
		c0.6,21.1-16.7,37.9-36.7,38.9C64.2,93,50.5,86,43.8,72c-1.5-3.1-2.6-6.3-3.1-10.1c-3.2-21.3,11.2-39.5,24.3-44
		c-7.1-6.2-24.9-5.8-38.1,4c-9.5,7-15.7,17.6-17.8,30.3C7.6,61.9,9,72,12.8,80.9c3.9,9.2,10.2,17.2,18.3,23.2
		c8.7,6.5,19.1,10.2,29.9,11c1.6,0.1,3.2,0.2,4.8,0.2C108.2,115.4,126.5,83.3,122.6,47.6z"/>
</g>
<g>
	
		<radialGradient id="SVGID_15_" cx="-1201.6234" cy="606.0538" r="237.6125" gradientTransform="matrix(0.9589 0 0 0.9589 1290.858 -576.2146)" gradientUnits="userSpaceOnUse">
		<stop  offset="5.356570e-02" style="stop-color:#FFF44F"/>
		<stop  offset="0.4573" style="stop-color:#FF980E"/>
		<stop  offset="0.5211" style="stop-color:#FF8424"/>
		<stop  offset="0.5871" style="stop-color:#FF7634"/>
		<stop  offset="0.6393" style="stop-color:#FF7139"/>
	</radialGradient>
	<path class="st14" d="M90.1,10C90,10,90,10.1,90.1,10c-1.9,2.4-1.5,5.6,0.7,7.5c9.6,7.9,16,19,16,31.9c0,17.8-13.8,31.4-30,30.5
		c-24-1.5-30.1-26-17.6-36.6c-3.4-0.7-9.7,0.7-14.1,7.3c-4,5.9-3.7,15-1.3,21.5c6.7,14,20.3,21.2,34.8,20.3
		c27.4-1.7,39.1-24.2,39.8-40.3c0.8-17.4-3.1-32.9-21.8-43.3C94.5,7.5,91.7,8,90.1,10z"/>
</g>
<g>
	
		<linearGradient id="SVGID_16_" gradientUnits="userSpaceOnUse" x1="94.53" y1="673.6696" x2="29.2069" y2="786.8124" gradientTransform="matrix(1 0 0 1 0 -662.3323)">
		<stop  offset="0" style="stop-color:#FFF44F;stop-opacity:0.8"/>
		<stop  offset="0.75" style="stop-color:#FFF44F;stop-opacity:0"/>
	</linearGradient>
	<path class="st15" d="M115.1,25.1c-1.7-2.3-3.6-4.4-5.6-6.3c-1.6-1.7-3.3-3.2-5.1-4.7c1,0.9,2,1.9,3,2.8c3.5,3.7,6.2,8.2,7.8,13
		c3.3,10.1,3.1,22.8-3.3,32.7c-7.6,11.8-20,17.7-33.4,17.4c-0.6,0-1.1,0-1.7,0c-24-1.5-30.1-26-17.6-36.6c-3.4-0.7-9.7,0.7-14.1,7.3
		c-4,5.9-3.7,15-1.3,21.5c-1.5-3.1-2.6-6.3-3.1-10.1c-3.2-21.3,11.2-39.5,24.3-44c-7.1-6.2-24.9-5.8-38.1,4
		c-7.7,5.7-13.2,13.7-16.1,23.3c0.4-5.4,2.5-13.4,6.7-21.6C13.1,26.1,7.4,33.3,4.7,40c-4.1,9.5-5.5,21-4.2,32
		c0.1,0.8,0.2,1.6,0.3,2.5c5.1,30.2,31.5,53.2,63.2,53.2c35.4,0,64.1-28.7,64.1-64.1C128,49.1,123.2,35.8,115.1,25.1z"/>
</g>
<g>
	<g>
		
			<linearGradient id="SVGID_17_" gradientUnits="userSpaceOnUse" x1="-1184.8158" y1="209.7661" x2="-1184.8158" y2="130.2571" gradientTransform="matrix(1 0 0 1 1258.4413 -129.4427)">
			<stop  offset="0" style="stop-color:#3A8EE6"/>
			<stop  offset="0.1016" style="stop-color:#4D82EB"/>
			<stop  offset="0.3885" style="stop-color:#7D65FA"/>
			<stop  offset="0.5309" style="stop-color:#9059FF"/>
			<stop  offset="0.6915" style="stop-color:#9D50F8"/>
			<stop  offset="0.9888" style="stop-color:#C03AE7"/>
			<stop  offset="1" style="stop-color:#C139E6"/>
		</linearGradient>
		<path class="st16" d="M115.2,29.9c-1.6-4.8-4.3-9.3-7.8-13C100,8.9,89.1,3.8,78.5,1.5c-8.9-2-18.1-1.9-26.5-0.2
			C42.9,3.2,34.9,7.2,29.9,12c17.5-10.2,41-8.3,57.1,3.1c2.7,1.9,5.2,4.1,7.5,6.5c10.7,11.5,15.1,30.8,6.1,44.7
			C96,73.4,86.3,80,77.2,79.9c13.9,0.7,26.9-5.1,34.7-17.4C118.3,52.6,118.6,40,115.2,29.9z"/>
	</g>
</g>
<g>
	<g>
		
			<linearGradient id="SVGID_18_" gradientUnits="userSpaceOnUse" x1="-1198.7881" y1="127.354" x2="-1155.4109" y2="202.4854" gradientTransform="matrix(1 0 0 1 1258.4413 -129.4427)">
			<stop  offset="0.8054" style="stop-color:#9059FF;stop-opacity:0"/>
			<stop  offset="1" style="stop-color:#6E008B;stop-opacity:0.5"/>
		</linearGradient>
		<path class="st17" d="M115.2,29.9c-1.6-4.8-4.3-9.3-7.8-13C100,8.9,89.1,3.8,78.5,1.5c-8.9-2-18.1-1.9-26.5-0.2
			C42.9,3.2,34.9,7.2,29.9,12c17.5-10.2,41-8.3,57.1,3.1c2.7,1.9,5.2,4.1,7.5,6.5c10.7,11.5,15.1,30.8,6.1,44.7
			C96,73.4,86.3,80,77.2,79.9c13.9,0.7,26.9-5.1,34.7-17.4C118.3,52.6,118.6,40,115.2,29.9z"/>
	</g>
</g>
</svg>
