<?xml version="1.0" encoding="utf-8"?>
<!-- Generator: Adobe Illustrator 25.2.3, SVG Export Plug-In . SVG Version: 6.00 Build 0)  -->
<svg version="1.1" id="Logo" xmlns="http://www.w3.org/2000/svg" xmlns:xlink="http://www.w3.org/1999/xlink" x="0px" y="0px"
	 viewBox="0 0 128 104" style="enable-background:new 0 0 128 104;" xml:space="preserve">
<style type="text/css">
	.st0{fill:#1D9BF0;}
</style>
<g id="Logo_1_">
	<path id="white_background" class="st0" d="M114.9,25.9c0.1,1.1,0.1,2.3,0.1,3.4C115,64,88.6,104,40.3,104v0C26,104,12,99.9,0,92.2
		c2.1,0.2,4.2,0.4,6.3,0.4c11.8,0,23.3-4,32.6-11.3c-11.2-0.2-21.1-7.5-24.5-18.2c3.9,0.8,8,0.6,11.9-0.5
		C13.9,60.2,5.1,49.4,5.1,36.9c0-0.1,0-0.2,0-0.3c3.7,2,7.7,3.2,11.9,3.3C5.5,32.1,1.9,16.8,8.9,4.8c13.3,16.4,33,26.4,54.1,27.4
		c-2.1-9.1,0.8-18.7,7.6-25.1c10.6-9.9,27.2-9.4,37.2,1.1c5.9-1.2,11.5-3.3,16.7-6.4c-2,6.1-6.1,11.2-11.5,14.5
		c5.2-0.6,10.3-2,15.1-4.1C124.5,17.6,120,22.2,114.9,25.9z"/>
</g>
</svg>
