<?xml version="1.0" encoding="utf-8"?>
<!-- Generator: Adobe Illustrator 25.2.3, SVG Export Plug-In . SVG Version: 6.00 Build 0)  -->
<svg version="1.1" id="Layer_1" xmlns="http://www.w3.org/2000/svg" xmlns:xlink="http://www.w3.org/1999/xlink" x="0px" y="0px"
	 viewBox="0 0 128 128" style="enable-background:new 0 0 128 128;" xml:space="preserve">
<style type="text/css">
	.st0{fill:#FF4500;}
	.st1{fill:#FFFFFF;}
	.st2{display:none;}
	.st3{display:inline;fill:none;stroke:#D8D8D8;stroke-width:0.5;stroke-miterlimit:10;}
</style>
<g>
	<circle class="st0" cx="64" cy="64" r="64"/>
	<path class="st1" d="M106.7,64c0-5.2-4.2-9.3-9.3-9.3c-2.6,0-4.8,1-6.5,2.6c-6.3-4.5-15.2-7.6-24.9-7.9l4.3-20l13.8,2.9
		c0.1,3.5,3.1,6.3,6.7,6.3c3.6,0,6.7-3,6.7-6.7s-3-6.7-6.7-6.7c-2.6,0-4.9,1.5-5.9,3.7l-15.5-3.3c-0.4-0.1-0.9,0-1.3,0.3
		c-0.4,0.3-0.6,0.6-0.8,1l-4.7,22.3c-10,0.3-18.9,3.2-25.3,7.9c-1.7-1.6-4-2.6-6.5-2.6c-5.2,0-9.3,4.2-9.3,9.3c0,3.8,2.2,7,5.6,8.5
		c-0.1,0.9-0.3,1.9-0.3,2.8c0,14.4,16.7,26,37.4,26s37.4-11.6,37.4-26c0-1-0.1-1.9-0.3-2.8C104.3,71.1,106.7,67.8,106.7,64z
		 M42.7,70.7c0-3.6,3-6.7,6.7-6.7s6.7,3,6.7,6.7s-3,6.7-6.7,6.7S42.7,74.3,42.7,70.7z M79.9,88.3c-4.5,4.5-13.2,4.9-15.8,4.9
		c-2.6,0-11.3-0.4-15.8-4.9c-0.7-0.7-0.7-1.8,0-2.5c0.7-0.7,1.8-0.7,2.5,0c2.8,2.8,9,3.9,13.4,3.9s10.5-1,13.4-3.9
		c0.7-0.7,1.8-0.7,2.5,0C80.5,86.5,80.5,87.6,79.9,88.3z M78.7,77.3c-3.6,0-6.7-3-6.7-6.7s3-6.7,6.7-6.7s6.7,3,6.7,6.7
		S82.4,77.3,78.7,77.3z"/>
</g>
<g id="Spacing_Guide" class="st2">
	<rect x="-106.9" y="-106.9" class="st3" width="85.4" height="85.4"/>
	<rect x="-106.9" y="-106.9" class="st3" width="341.8" height="85.4"/>
	<rect x="-106.9" y="149.4" class="st3" width="341.8" height="85.4"/>
	<rect x="-106.9" y="-106.9" class="st3" width="85.4" height="341.8"/>
	<rect x="149.5" y="-106.9" class="st3" width="85.4" height="341.8"/>
</g>
</svg>
