<?xml version="1.0" encoding="utf-8"?>
<!-- Generator: Adobe Illustrator 25.2.3, SVG Export Plug-In . SVG Version: 6.00 Build 0)  -->
<svg version="1.1" id="linkedin-logo-blue-14" xmlns="http://www.w3.org/2000/svg" xmlns:xlink="http://www.w3.org/1999/xlink"
	 x="0px" y="0px" viewBox="0 0 127.1 128" style="enable-background:new 0 0 127.1 128;" xml:space="preserve">
<style type="text/css">
	.st0{fill:#2867B2;}
</style>
<path class="st0" d="M117.9,0H9.1C3.7,0,0,3.7,0,9.1v109.7c0,5.5,4.6,9.1,9.1,9.1h108.8c5.5,0,9.1-3.7,9.1-9.1V9.1
	C127.1,3.7,123.4,0,117.9,0z M37.5,108.8H18.3V47.5h19.2V108.8z M28.3,39.3c-6.4,0-11-4.6-11-11s4.6-11,11-11s11,4.6,11,11
	S33.8,39.3,28.3,39.3z M108.8,108.8H89.6V79.5c0-7.3,0-16.5-10.1-16.5s-11,7.3-11,15.5v30.2H49.4V47.5h18.3v8.2
	c3.7-6.4,11-10.1,18.3-10.1c19.2,0,22.9,12.8,22.9,29.3C108.8,75,108.8,108.8,108.8,108.8z"/>
</svg>
