<?xml version="1.0" encoding="utf-8"?>
<!-- Generator: Adobe Illustrator 25.2.3, SVG Export Plug-In . SVG Version: 6.00 Build 0)  -->
<svg version="1.1" id="Layer_1" xmlns="http://www.w3.org/2000/svg" xmlns:xlink="http://www.w3.org/1999/xlink" x="0px" y="0px"
	 viewBox="0 0 128 128" style="enable-background:new 0 0 128 128;" xml:space="preserve">
<style type="text/css">
	.st0{fill-rule:evenodd;clip-rule:evenodd;fill:url(#SVGID_1_);}
	.st1{fill-rule:evenodd;clip-rule:evenodd;fill:#FFFFFF;}
</style>
<g>
	
		<linearGradient id="SVGID_1_" gradientUnits="userSpaceOnUse" x1="-240.4043" y1="460.3535" x2="-240.4043" y2="460.1035" gradientTransform="matrix(512 0 0 -512 123151 235701)">
		<stop  offset="0" style="stop-color:#FF840E"/>
		<stop  offset="8.431000e-02" style="stop-color:#FF710E"/>
		<stop  offset="0.7348" style="stop-color:#FF0000"/>
		<stop  offset="1" style="stop-color:#F10A00"/>
	</linearGradient>
	<path class="st0" d="M0,12.8v102.4c0,7.4,5.4,12.8,12.8,12.8h102.4c7.4,0,12.8-5.4,12.8-12.8V12.8C128,5.4,122.6,0,115.2,0H12.8
		C5.4,0,0,5.4,0,12.8z"/>
	<path class="st1" d="M34.3,104.8c5.2,3.1,15.5,5.8,25.6,5.8c24.2,0,35.6-12.8,35.6-27.6c0-13.2-7.8-21.2-24.2-27.2
		c-12.6-4.8-18-8-18-15.1c0-5.4,4.6-11,15.5-11c8.8,0,15.4,2.6,18.9,4.3l4.1-13.5C86.8,18.2,79.4,16,69.2,16
		c-20.5,0-33.4,11.3-33.4,26.4c0,13.2,9.9,21.2,25.6,26.6C73.3,73.2,78,77.3,78,84.2c0,7.5-6.1,12.5-17.1,12.5
		c-8.8,0-17.3-2.7-22.8-5.8L34.3,104.8z"/>
</g>
</svg>
