<?xml version="1.0" encoding="utf-8"?>
<!-- Generator: Adobe Illustrator 25.2.3, SVG Export Plug-In . SVG Version: 6.00 Build 0)  -->
<svg version="1.1" id="Layer_1" xmlns="http://www.w3.org/2000/svg" xmlns:xlink="http://www.w3.org/1999/xlink" x="0px" y="0px"
	 viewBox="0 0 108.5 128" style="enable-background:new 0 0 108.5 128;" xml:space="preserve">
<style type="text/css">
	.st0{fill:#009CDE;}
	.st1{fill:#012169;}
	.st2{fill:#003087;}
</style>
<path class="st0" d="M97.8,32.5c1.6-10,0-16.7-5.4-22.9C86.4,2.9,75.7,0,62,0H22.2c-2.8,0-5.2,2-5.6,4.8L0,109.8
	c-0.3,2.1,1.3,3.9,3.4,3.9H28l-1.7,10.8c-0.3,1.8,1.1,3.5,3,3.5h20.7c2.4,0,4.5-1.8,4.9-4.2l0.2-1.1L59,98l0.3-1.4
	c0.4-2.4,2.5-4.2,4.9-4.2h3.1c20.1,0,35.8-8.1,40.3-31.7c1.9-9.8,0.9-18.1-4.1-23.8C101.9,35.1,100,33.7,97.8,32.5L97.8,32.5"/>
<path class="st1" d="M97.8,32.5c1.6-10,0-16.7-5.4-22.9C86.4,2.9,75.7,0,62,0H22.2c-2.8,0-5.2,2-5.6,4.8L0,109.8
	c-0.3,2.1,1.3,3.9,3.4,3.9H28l6.2-39.1L34,75.9c0.4-2.8,2.8-4.8,5.6-4.8h11.7c22.9,0,40.9-9.3,46.1-36.2
	C97.5,34.1,97.6,33.3,97.8,32.5"/>
<path class="st2" d="M40.8,32.7c0.3-1.7,1.3-3,2.8-3.7c0.7-0.3,1.4-0.5,2.2-0.5h31.2c3.7,0,7.1,0.2,10.3,0.8
	c0.9,0.1,1.8,0.3,2.6,0.5c0.9,0.2,1.7,0.4,2.5,0.6c0.4,0.1,0.8,0.2,1.2,0.4c1.5,0.5,3,1.1,4.3,1.8c1.6-10,0-16.7-5.4-22.9
	C86.4,2.9,75.7,0,62,0H22.2c-2.8,0-5.2,2-5.6,4.8L0,109.8c-0.3,2.1,1.3,3.9,3.4,3.9H28l6.2-39.1L40.8,32.7z"/>
</svg>
