<?xml version="1.0" encoding="utf-8"?>
<!-- Generator: Adobe Illustrator 25.2.3, SVG Export Plug-In . SVG Version: 6.00 Build 0)  -->
<svg version="1.1" id="logoHorizontal" xmlns="http://www.w3.org/2000/svg" xmlns:xlink="http://www.w3.org/1999/xlink" x="0px"
	 y="0px" viewBox="0 0 128 91.9" style="enable-background:new 0 0 128 91.9;" xml:space="preserve">
<style type="text/css">
	.st0{fill:#2496ED;}
</style>
<g>
	<path class="st0" d="M126.7,34.7c-0.3-0.3-3.6-2.7-10.4-2.7c-1.8,0-3.6,0.2-5.4,0.5c-1.3-9.1-8.8-13.5-9.2-13.7l-1.8-1.1l-1.2,1.7
		c-1.5,2.3-2.6,4.9-3.3,7.6c-1.2,5.2-0.5,10,2.1,14.2c-3.2,1.8-8.3,2.2-9.3,2.2H4c-2.2,0-4,1.8-4,4c-0.1,7.4,1.2,14.7,3.7,21.7
		c2.9,7.6,7.2,13.2,12.8,16.7c6.3,3.9,16.5,6.1,28.1,6.1c5.2,0,10.5-0.5,15.6-1.4c7.2-1.3,14.1-3.8,20.4-7.4
		c5.2-3,9.9-6.9,13.9-11.4c6.7-7.6,10.7-16,13.6-23.5c0.4,0,0.8,0,1.2,0c7.3,0,11.8-2.9,14.3-5.4c1.6-1.6,2.9-3.5,3.8-5.6l0.5-1.5
		L126.7,34.7z"/>
	<path class="st0" d="M11.8,41h11.3c0.5,0,1-0.4,1-1l0,0V30c0-0.5-0.4-1-1-1c0,0,0,0,0,0H11.8c-0.5,0-1,0.4-1,1c0,0,0,0,0,0V40
		C10.8,40.6,11.3,41,11.8,41L11.8,41"/>
	<path class="st0" d="M27.4,41h11.3c0.5,0,1-0.4,1-1l0,0V30c0-0.5-0.4-1-1-1c0,0,0,0,0,0H27.4c-0.5,0-1,0.4-1,1V40
		C26.4,40.6,26.8,41,27.4,41"/>
	<path class="st0" d="M43.2,41h11.3c0.5,0,1-0.4,1-1l0,0V30c0-0.5-0.4-1-1-1c0,0,0,0,0,0H43.2c-0.5,0-1,0.4-1,1c0,0,0,0,0,0V40
		C42.2,40.6,42.7,41,43.2,41L43.2,41"/>
	<path class="st0" d="M58.8,41h11.3c0.5,0,1-0.4,1-1V30c0-0.5-0.4-1-1-1l0,0H58.8c-0.5,0-1,0.4-1,1c0,0,0,0,0,0V40
		C57.8,40.6,58.3,41,58.8,41L58.8,41"/>
	<path class="st0" d="M27.4,26.5h11.3c0.5,0,1-0.4,1-1V15.5c0-0.5-0.4-1-1-1l0,0H27.4c-0.5,0-1,0.4-1,1v10.1
		C26.4,26.1,26.8,26.5,27.4,26.5"/>
	<path class="st0" d="M43.2,26.5h11.3c0.5,0,1-0.4,1-1V15.5c0-0.5-0.4-1-1-1l0,0H43.2c-0.5,0-1,0.4-1,1l0,0v10.1
		C42.2,26.1,42.7,26.5,43.2,26.5"/>
	<path class="st0" d="M58.8,26.5h11.3c0.5,0,1-0.4,1-1V15.5c0-0.5-0.4-1-1-1H58.8c-0.5,0-1,0.4-1,1l0,0v10.1
		C57.8,26.1,58.3,26.5,58.8,26.5"/>
	<path class="st0" d="M58.8,12h11.3c0.5,0,1-0.4,1-1V1c0-0.5-0.4-1-1-1H58.8c-0.5,0-1,0.4-1,1l0,0v10.1C57.8,11.6,58.3,12,58.8,12"
		/>
	<path class="st0" d="M74.6,41h11.3c0.5,0,1-0.4,1-1V30c0-0.5-0.4-1-1-1l0,0H74.6c-0.5,0-1,0.4-1,1c0,0,0,0,0,0V40
		C73.6,40.6,74,41,74.6,41"/>
</g>
</svg>
