<?xml version="1.0" encoding="utf-8"?>
<!-- Generator: Adobe Illustrator 25.2.3, SVG Export Plug-In . SVG Version: 6.00 Build 0)  -->
<svg version="1.1"
	 id="svg8" xmlns:cc="http://creativecommons.org/ns#" xmlns:dc="http://purl.org/dc/elements/1.1/" xmlns:rdf="http://www.w3.org/1999/02/22-rdf-syntax-ns#" xmlns:svg="http://www.w3.org/2000/svg"
	 xmlns="http://www.w3.org/2000/svg" xmlns:xlink="http://www.w3.org/1999/xlink" x="0px" y="0px" viewBox="0 0 128 128"
	 style="enable-background:new 0 0 128 128;" xml:space="preserve">
<style type="text/css">
	.st0{fill:#FFFFFF;}
	.st1{fill:#081720;}
	.st2{fill:#CECECE;}
</style>
<g id="layer4" transform="translate(0,-32.41665)">
</g>
<g id="layer2" transform="translate(0,-32.41665)">
</g>
<g id="layer3" transform="translate(0,-32.41665)">
	<g id="g1072" transform="matrix(3.6363637,0,0,3.6363637,-521.95076,-145.59457)">
		<path id="path909-5" class="st0" d="M155.6,67.4c0.8-2,1.8-4.3,3.3-5.9c3.6-3.9,7.4-4.2,7.4-4.2h-13.6c-0.5,0-0.8,0.3-0.8,0.8
			v12.5c0.2-0.1,0.4-0.1,0.5-0.2c0.2-0.1,0.4-0.2,0.5-0.3c0.4-0.2,0.7-0.5,1-0.8s0.6-0.6,0.9-0.9C155.1,68,155.4,67.6,155.6,67.4"/>
		<path id="path913-2" class="st0" d="M170.3,63.4v11.4c0,0.3-0.3,0.6-0.6,0.6h-12.5c1.3-0.3,2-5.3,5.4-9.4
			C165.6,62.4,170.3,63.4,170.3,63.4z"/>
		<path id="path909" class="st1" d="M146.1,49c-1.3,0-2.6,1.3-2.6,2.6v30.1c0,1.3,1.3,2.6,2.6,2.6h30.1c1.3,0,2.6-1.3,2.6-2.6V51.5
			c0-1.1-1.3-2.6-2.6-2.6L146.1,49L146.1,49z M172.3,55.8c-1.8,2.2-1.9,5.4-2.1,7.5v11.4c0,0.3-0.3,0.6-0.6,0.6h-12.5
			C158.3,66.1,163.9,58.2,172.3,55.8z M152.7,57.3h13.6c0,0-3.8,0.2-7.4,4.2c-2.8,3-3.7,7.7-5.1,10.2s-1.9,2.6-1.9,2.6V58.1
			C151.9,57.6,152.2,57.3,152.7,57.3z"/>
		<path id="path909-6" class="st2" d="M155.6,67.4c-0.6,1.6-1.2,3.2-1.8,4.3c-1.4,2.6-1.9,2.6-1.9,2.6v-3.7
			C153.3,70.1,154.7,68.5,155.6,67.4z"/>
		<path id="path913" class="st2" d="M170.3,63.4c0.2-2.1,0.3-5.3,2.1-7.5c-8.5,2.4-14.1,10.2-15.2,19.5c1.3-0.3,2-5.3,5.4-9.4
			C165.6,62.4,170.3,63.4,170.3,63.4L170.3,63.4z"/>
	</g>
</g>
</svg>
