<?xml version="1.0" encoding="utf-8"?>
<!-- Generator: Adobe Illustrator 25.2.3, SVG Export Plug-In . SVG Version: 6.00 Build 0)  -->
<svg version="1.1"
	 id="svg8" xmlns:cc="http://creativecommons.org/ns#" xmlns:dc="http://purl.org/dc/elements/1.1/" xmlns:rdf="http://www.w3.org/1999/02/22-rdf-syntax-ns#" xmlns:svg="http://www.w3.org/2000/svg"
	 xmlns="http://www.w3.org/2000/svg" xmlns:xlink="http://www.w3.org/1999/xlink" x="0px" y="0px" viewBox="0 0 128 127.5"
	 style="enable-background:new 0 0 128 127.5;" xml:space="preserve">
<style type="text/css">
	.st0{fill:#333333;}
	.st1{fill:none;}
</style>
<g id="layer1" transform="translate(0,-32.41665)">
	<g id="g1027" transform="matrix(0.26458333,0,0,0.26458333,-17.667708,170.32285)">
		<path id="path977" class="st0" d="M168.6-254.3c-0.1,0-0.1,0-0.2,0C168.5-254.3,168.6-254.3,168.6-254.3z"/>
		<path id="path989" class="st0" d="M161.2-228.2c0-4.1,3.3-7.5,7.5-7.5l0,0c4.1,0,7.5,3.3,7.5,7.5l0,0c0,4.1-3.3,7.5-7.5,7.5l0,0
			C164.6-220.7,161.2-224,161.2-228.2z M161.6-228.2c0,3.9,3.2,7.1,7.1,7.1l0,0c3.9,0,7.1-3.2,7.1-7.1l0,0c0-3.9-3.2-7.1-7.1-7.1
			l0,0C164.7-235.3,161.6-232.1,161.6-228.2z"/>
		<path id="path991" class="st0" d="M169.8-228.2c0,0.6-0.5,1.2-1.2,1.2s-1.2-0.5-1.2-1.2c0-0.6,0.5-1.2,1.2-1.2
			S169.8-228.8,169.8-228.2z"/>
		<g id="g1023" transform="matrix(9.2079086,0,0,9.2079086,-1986.5775,-817.70438)">
			<path id="path997" class="st1" d="M249.3,48.6c-5.4,0-9.7,4.4-9.7,9.7c0,2.8,1.2,5.2,3,7c0,0,0,0,0,0L240,68
				c0.9,0.9,1.9,1.6,3,2.2l1.8-3.2l0,0c1.4,0.7,2.9,1.1,4.5,1.1c5.4,0,9.7-4.4,9.7-9.7c0-2.6-1-4.9-2.7-6.7l2.6-2.8
				c-0.9-0.9-1.8-1.6-2.9-2.3l-1.8,3.3C252.7,49.1,251.1,48.6,249.3,48.6L249.3,48.6z"/>
			<path id="path999" class="st1" d="M236.8,71.5l-2.6,2.8c1.4,1.3,2.9,2.4,4.6,3.3l1.9-3.3C239.2,73.5,237.9,72.6,236.8,71.5z"/>
			<path id="path1001" class="st1" d="M262.1,45.4l2.6-2.8c-1.4-1.4-3-2.5-4.6-3.5l-1.8,3.3C259.6,43.3,260.9,44.3,262.1,45.4z"/>
			<path id="path1003" class="st1" d="M259.2,48.6l2.6-2.8c-1.1-1.1-2.4-2.1-3.8-2.9l-1.8,3.3C257.3,46.9,258.3,47.6,259.2,48.6z"/>
			<path id="path1005" class="st1" d="M239.7,68.3l-2.6,2.8c1.1,1.1,2.4,2,3.8,2.8l1.8-3.3C241.6,70,240.6,69.2,239.7,68.3
				L239.7,68.3z"/>
			<path id="path1007" class="st0" d="M235.9,58.3c0,3.8,1.6,7.2,4.1,9.7l2.5-2.8c0,0,0,0,0,0c-1.8-1.7-3-4.2-3-7
				c0-5.4,4.4-9.7,9.7-9.7c1.8,0,3.4,0.5,4.8,1.3l1.8-3.3c-2-1.1-4.2-1.7-6.6-1.7C241.9,44.9,235.9,50.9,235.9,58.3L235.9,58.3z"/>
			<path id="path1009" class="st0" d="M259,58.3c0,5.4-4.4,9.7-9.7,9.7c-1.6,0-3.1-0.4-4.5-1.1l0,0l-1.8,3.2c1.9,1,4.1,1.6,6.3,1.6
				c7.4,0,13.4-6,13.4-13.4c0-3.7-1.5-7-3.9-9.4l-2.6,2.8C258,53.4,259,55.7,259,58.3L259,58.3z"/>
			<path id="path1011" class="st0" d="M231.6,58.3c0,5,2.1,9.6,5.5,12.8l2.6-2.8c-2.7-2.5-4.3-6.1-4.3-10c0-7.7,6.2-13.9,13.9-13.9
				c2.5,0,4.8,0.7,6.9,1.8L258,43c-2.6-1.5-5.5-2.3-8.7-2.3C239.5,40.6,231.6,48.6,231.6,58.3z"/>
			<path id="path1013" class="st0" d="M263.2,58.3c0,7.7-6.2,13.9-13.9,13.9c-2.4,0-4.6-0.6-6.6-1.6l-1.8,3.3
				c2.5,1.4,5.4,2.1,8.4,2.1c9.8,0,17.7-7.9,17.7-17.7c0-4.9-2-9.3-5.2-12.5l-2.6,2.8C261.7,51.1,263.2,54.5,263.2,58.3L263.2,58.3z
				"/>
			<path id="path1015" class="st0" d="M267.5,58.3c0,10-8.2,18.2-18.2,18.2c-3.1,0-6.1-0.8-8.7-2.2l-1.9,3.3
				c3.1,1.7,6.7,2.7,10.5,2.7c12.1,0,22-9.9,22-22c0-6.1-2.5-11.7-6.6-15.7l-2.6,2.8C265.4,48.7,267.5,53.3,267.5,58.3L267.5,58.3z"
				/>
			<path id="path1017" class="st0" d="M227.3,58.3c0,6.3,2.7,11.9,6.9,16l2.6-2.8c-3.5-3.3-5.7-8-5.7-13.2c0-10,8.2-18.2,18.2-18.2
				c3.2,0,6.3,0.9,8.9,2.4l1.8-3.3c-3.2-1.8-6.9-2.8-10.7-2.8C237.2,36.3,227.3,46.2,227.3,58.3z"/>
			<path id="path1019" class="st0" d="M267.6,39.6l-2.5,2.7c4.2,4.1,6.8,9.8,6.8,16c0,12.4-10.1,22.4-22.4,22.4
				c-3.9,0-7.5-1-10.7-2.8l-1.9,3.3c3.7,2,8,3.2,12.6,3.2c14.5,0,26.2-11.8,26.2-26.2C275.5,51,272.4,44.3,267.6,39.6L267.6,39.6z"
				/>
			<path id="path1021" class="st0" d="M226.8,58.3c0-12.4,10.1-22.4,22.4-22.4c4,0,7.7,1.1,11,2.9l1.8-3.2
				c-3.7-2.1-7.9-3.3-12.4-3.3h-0.4c-14.4,0-26.1,11.6-26.2,26l0,0v0.2c0,7.5,3.2,14.3,8.3,19.1l2.6-2.8
				C229.5,70.5,226.8,64.8,226.8,58.3L226.8,58.3z"/>
		</g>
	</g>
</g>
</svg>
