<?xml version="1.0" encoding="utf-8"?>
<!-- Generator: Adobe Illustrator 25.2.3, SVG Export Plug-In . SVG Version: 6.00 Build 0)  -->
<svg version="1.1" id="Layer_1" xmlns="http://www.w3.org/2000/svg" xmlns:xlink="http://www.w3.org/1999/xlink" x="0px" y="0px"
	 viewBox="0 0 128 128" style="enable-background:new 0 0 128 128;" xml:space="preserve">
<style type="text/css">
	.st0{fill:#1877F2;}
	.st1{fill:#FFFFFF;}
</style>
<g>
	<path class="st0" d="M128,64c0-35.3-28.7-64-64-64S0,28.7,0,64c0,31.9,23.4,58.4,54,63.2V82.5H37.8V64H54V49.9
		c0-16,9.6-24.9,24.2-24.9c7,0,14.3,1.2,14.3,1.2V42h-8.1c-8,0-10.4,4.9-10.4,10v12h17.8l-2.8,18.5H74v44.7
		C104.6,122.4,128,95.9,128,64z"/>
	<path class="st1" d="M88.9,82.5L91.8,64H74V52c0-5.1,2.5-10,10.4-10h8.1V26.2c0,0-7.3-1.2-14.3-1.2C63.6,25,54,33.9,54,49.9V64
		H37.8v18.5H54v44.7c3.3,0.5,6.6,0.8,10,0.8s6.7-0.3,10-0.8V82.5H88.9z"/>
</g>
</svg>
