<?xml version="1.0" encoding="utf-8"?>
<!-- Generator: Adobe Illustrator 25.2.3, SVG Export Plug-In . SVG Version: 6.00 Build 0)  -->
<svg version="1.1"
	 id="svg102" xmlns:cc="http://creativecommons.org/ns#" xmlns:dc="http://purl.org/dc/elements/1.1/" xmlns:rdf="http://www.w3.org/1999/02/22-rdf-syntax-ns#" xmlns:svg="http://www.w3.org/2000/svg"
	 xmlns="http://www.w3.org/2000/svg" xmlns:xlink="http://www.w3.org/1999/xlink" x="0px" y="0px" viewBox="0 0 128 127.7"
	 style="enable-background:new 0 0 128 127.7;" xml:space="preserve">
<style type="text/css">
	.st0{fill:url(#path58_1_);}
	.st1{fill:url(#path60_1_);}
	.st2{fill:url(#path62_1_);}
	.st3{fill:url(#path64_1_);}
	.st4{fill:url(#path66_1_);}
	.st5{opacity:0.5443;}
	.st6{fill:url(#path68_1_);}
	.st7{fill-opacity:0.4999;}
	.st8{opacity:0.1;fill:url(#path74_1_);enable-background:new    ;}
	.st9{opacity:0.1801;fill:url(#path76_1_);enable-background:new    ;}
	.st10{opacity:0.1801;}
	.st11{fill:url(#path78_1_);}
	.st12{fill-opacity:0.7728;}
	.st13{opacity:0.5842;}
	.st14{fill:url(#path84_1_);}
	.st15{fill-opacity:0.5031;}
	.st16{opacity:0.5622;}
	.st17{fill:url(#path90_1_);}
	.st18{fill-opacity:0.4962;}
	.st19{fill:#FFFFFF;}
</style>
<g>
	
		<linearGradient id="path58_1_" gradientUnits="userSpaceOnUse" x1="324.8515" y1="344.5311" x2="247.9868" y2="341.2175" gradientTransform="matrix(0.6401 0.5371 0.7693 -0.9168 -418.4409 216.2273)">
		<stop  offset="0" style="stop-color:#FF5C34"/>
		<stop  offset="1" style="stop-color:#EB0256"/>
	</linearGradient>
	<path id="path58" class="st0" d="M64,63.9c-10.5-14.3-30.5-17.6-44.7-7.3S2,86.8,12.5,101.1l0.8,1.1C-3.8,79.8-4.7,48.5,12.4,25.5
		l0.3-0.4c10.5-14,30.6-16.7,44.8-6S74.5,49.8,64,63.9z"/>
	
		<linearGradient id="path60_1_" gradientUnits="userSpaceOnUse" x1="144.9438" y1="228.3926" x2="173.1453" y2="294.9195" gradientTransform="matrix(0.9332 0.783 0.5277 -0.6289 -242.3876 132.2662)">
		<stop  offset="0" style="stop-color:#A63FDB"/>
		<stop  offset="1" style="stop-color:#FF257E"/>
	</linearGradient>
	<path id="path60" class="st1" d="M64,63.9c-16.7,5.6-25.4,23.8-19.6,40.5s24.1,25.7,40.8,20l1.1-0.4c-20.7,7.4-44.9,3.9-63.1-11.5
		c-3.8-3.1-7.1-6.6-9.9-10.4l-0.8-1.1C2,86.8,5,66.8,19.3,56.5S53.5,49.5,64,63.9z"/>
	
		<linearGradient id="path62_1_" gradientUnits="userSpaceOnUse" x1="306.7113" y1="354.8883" x2="369.1465" y2="341.1407" gradientTransform="matrix(0.6731 0.5648 0.7316 -0.8719 -393.658 200.8602)">
		<stop  offset="0" style="stop-color:#00FFF0"/>
		<stop  offset="1" style="stop-color:#0087FF"/>
	</linearGradient>
	<path id="path62" class="st2" d="M64,63.9c0.1,17.6,14.5,32,32.2,32.1s31.9-14.1,31.8-31.7l0-0.4c0.2,14.6-4.6,29.3-14.7,41.4
		c-7.4,8.9-16.8,15.1-27,18.8l-1.1,0.4c-16.7,5.6-34.9-3.3-40.8-20S47.3,69.5,64,63.9z"/>
	
		<linearGradient id="path64_1_" gradientUnits="userSpaceOnUse" x1="254.928" y1="386.8017" x2="207.5196" y2="336.2006" gradientTransform="matrix(0.8028 0.6736 0.6133 -0.731 -310.4 157.3491)">
		<stop  offset="0" style="stop-color:#17C934"/>
		<stop  offset="1" style="stop-color:#03FF6E"/>
	</linearGradient>
	<path id="path64" class="st3" d="M64,63.9c16.8,5.6,34.8-3.5,40.2-20.3c5.4-16.7-3.9-34.8-20.8-40.4L82,2.8
		c8.1,2.5,15.9,6.6,22.8,12.4c15,12.6,22.9,30.6,23.2,48.7l0,0.4c0.1,17.6-14.1,31.8-31.8,31.7C78.5,95.9,64.1,81.5,64,63.9z"/>
	
		<linearGradient id="path66_1_" gradientUnits="userSpaceOnUse" x1="167.7234" y1="302.3304" x2="153.3145" y2="385.2807" gradientTransform="matrix(0.8728 0.7323 0.5642 -0.6724 -272.4074 142.101)">
		<stop  offset="0" style="stop-color:#FFB000"/>
		<stop  offset="1" style="stop-color:#FF7725"/>
	</linearGradient>
	<path id="path66" class="st4" d="M64,63.9c10.5-14,7.6-34.1-6.6-44.8s-34.2-8-44.8,6l-0.3,0.4c0.8-1,1.5-2,2.4-3
		C31.5,2.5,58.2-4.4,82,2.8l1.4,0.5c16.8,5.6,26.1,23.6,20.8,40.4C98.8,60.3,80.8,69.4,64,63.9z"/>
	<g id="g72" transform="matrix(-0.37460713,0.92718385,-0.92718518,-0.37460659,68.842244,2.122857)" class="st5">
		
			<linearGradient id="path68_1_" gradientUnits="userSpaceOnUse" x1="739.1317" y1="-269.0606" x2="845.2188" y2="-262.5554" gradientTransform="matrix(-0.3201 -1.0852 -0.7922 0.4384 22.0925 865.9471)">
			<stop  offset="0" style="stop-color:#9EE85D"/>
			<stop  offset="1" style="stop-color:#0ED061"/>
		</linearGradient>
		<path id="path68" class="st6" d="M34.6-77.6l0.5-0.2c16.5-6.6,35.2,1.3,41.9,17.6s-1.3,34.8-17.8,41.4c-0.1-2.6-0.6-5.1-1.3-7.5
			c8.8-4.8,14.8-14.1,14.8-24.7c0-15.6-12.8-28.2-28.5-28.2C40.8-79.2,37.6-78.6,34.6-77.6z"/>
		<path id="path70" class="st7" d="M34.6-77.6l0.5-0.2c16.5-6.6,35.2,1.3,41.9,17.6s-1.3,34.8-17.8,41.4c-0.1-2.6-0.6-5.1-1.3-7.5
			c8.8-4.8,14.8-14.1,14.8-24.7c0-15.6-12.8-28.2-28.5-28.2C40.8-79.2,37.6-78.6,34.6-77.6z"/>
	</g>
	
		<linearGradient id="path74_1_" gradientUnits="userSpaceOnUse" x1="167.7234" y1="302.3304" x2="153.3145" y2="385.2807" gradientTransform="matrix(0.8728 0.7323 0.5642 -0.6724 -272.4074 142.101)">
		<stop  offset="0" style="stop-color:#FFB000"/>
		<stop  offset="1" style="stop-color:#FF7725"/>
	</linearGradient>
	<path id="path74" class="st8" d="M64,63.9c10.5-14,7.6-34.1-6.6-44.8s-34.2-8-44.8,6l-0.3,0.4c0.8-1,1.5-2,2.4-3
		C31.5,2.5,58.2-4.4,82,2.8l1.4,0.5c16.8,5.6,26.1,23.6,20.8,40.4C98.8,60.3,80.8,69.4,64,63.9z"/>
	
		<linearGradient id="path76_1_" gradientUnits="userSpaceOnUse" x1="-135.2057" y1="98.3486" x2="-187.5214" y2="96.0933" gradientTransform="matrix(0.7324 -0.4401 -0.6028 -1.0032 222.5791 64.9238)">
		<stop  offset="0" style="stop-color:#FF5C34"/>
		<stop  offset="1" style="stop-color:#EB0256"/>
	</linearGradient>
	<path id="path76" class="st9" d="M12.4,25.9l0.3-0.4c10.7-14.1,30.8-17,44.9-6.5s16.8,30.5,6.1,44.6c-1.5-2.2-3.1-4.1-5-5.7
		c5.1-8.7,5.5-19.7,0-28.8c-8-13.3-25.4-17.6-38.9-9.5C16.9,21.3,14.5,23.5,12.4,25.9L12.4,25.9z"/>
	<g id="g82" transform="matrix(0.85716853,-0.51503807,0.51503881,0.8571673,-5.2722905,4.334214)" class="st10">
		
			<linearGradient id="path78_1_" gradientUnits="userSpaceOnUse" x1="-159.5448" y1="13.4711" x2="-211.8604" y2="11.2158" gradientTransform="matrix(0.7324 0.6028 0.4401 -1.0032 159.6579 164.4343)">
			<stop  offset="0" style="stop-color:#FF5C34"/>
			<stop  offset="1" style="stop-color:#EB0256"/>
		</linearGradient>
		<path id="path78" class="st11" d="M4.2,28.2L4.7,28c16.5-6.6,35.2,1.3,41.9,17.6s-1.3,34.8-17.8,41.4c-0.1-2.6-0.6-5.1-1.3-7.5
			c8.8-4.8,14.8-14.1,14.8-24.7c0-15.6-12.8-28.2-28.5-28.2C10.4,26.6,7.2,27.2,4.2,28.2z"/>
		<path id="path80" class="st12" d="M4.2,28.2L4.7,28c16.5-6.6,35.2,1.3,41.9,17.6s-1.3,34.8-17.8,41.4c-0.1-2.6-0.6-5.1-1.3-7.5
			c8.8-4.8,14.8-14.1,14.8-24.7c0-15.6-12.8-28.2-28.5-28.2C10.4,26.6,7.2,27.2,4.2,28.2z"/>
	</g>
	<g id="g88" transform="matrix(-0.22495138,-0.97437006,0.97437146,-0.22495105,-15.913458,55.421439)" class="st13">
		
			<linearGradient id="path84_1_" gradientUnits="userSpaceOnUse" x1="-118.8048" y1="-667.7151" x2="-218.021" y2="-659.287" gradientTransform="matrix(-0.1922 1.1404 0.8325 0.2633 526.2776 353.6617)">
			<stop  offset="0" style="stop-color:#A63FDB"/>
			<stop  offset="1" style="stop-color:#FF257E"/>
		</linearGradient>
		<path id="path84" class="st14" d="M-51,17.4l0.5-0.2c16.5-6.6,35.2,1.3,41.9,17.6s-1.3,34.8-17.8,41.4c-0.1-2.6-0.6-5.1-1.3-7.5
			c8.8-4.8,14.8-14.1,14.8-24.7c0-15.6-12.8-28.2-28.5-28.2C-44.7,15.7-48,16.3-51,17.4z"/>
		<path id="path86" class="st15" d="M-51,17.4l0.5-0.2c16.5-6.6,35.2,1.3,41.9,17.6s-1.3,34.8-17.8,41.4c-0.1-2.6-0.6-5.1-1.3-7.5
			c8.8-4.8,14.8-14.1,14.8-24.7c0-15.6-12.8-28.2-28.5-28.2C-44.7,15.7-48,16.3-51,17.4z"/>
	</g>
	<g id="g94" transform="matrix(-0.99863096,-0.05233596,0.05233603,-0.99862953,57.15441,72.548735)" class="st16">
		
			<linearGradient id="path90_1_" gradientUnits="userSpaceOnUse" x1="495.008" y1="-680.2764" x2="471.199" y2="-743.5032" gradientTransform="matrix(-0.8533 6.125326e-02 4.471685e-02 1.1688 457.3552 776.0306)">
			<stop  offset="0" style="stop-color:#21EFE3"/>
			<stop  offset="1" style="stop-color:#2598FF"/>
		</linearGradient>
		<path id="path90" class="st17" d="M-31.1-49.8l0.5-0.2c16.5-6.6,35.2,1.3,41.9,17.6S9.9,2.3-6.6,8.9c-0.1-2.6-0.6-5.1-1.3-7.5
			C1-3.4,7-12.7,7-23.3C7-38.9-5.8-51.5-21.5-51.5C-24.9-51.5-28.1-50.9-31.1-49.8z"/>
		<path id="path92" d="M-31.1-49.8l0.5-0.2c16.5-6.6,35.2,1.3,41.9,17.6S9.9,2.3-6.6,8.9c-0.1-2.6-0.6-5.1-1.3-7.5
			C1-3.4,7-12.7,7-23.3C7-38.9-5.8-51.5-21.5-51.5C-24.9-51.5-28.1-50.9-31.1-49.8z"/>
	</g>
	<path id="path96" class="st18" d="M82.9,3.1l0.5,0.2c16.8,5.6,26.1,23.6,20.8,40.4C98.8,60.3,80.8,69.4,64,63.9
		c1.6-2.1,2.8-4.3,3.8-6.6c9.8,2,20.4-1.2,27.2-9.4C105,36,103.4,18.1,91.3,8C88.7,5.8,85.9,4.2,82.9,3.1z"/>
	<path id="path98" d="M59,77.6h11.7c11,0,20-8.7,20-19.4c0-10.7-8.9-19.4-20-19.4H53.8c-6.4,0-11.5,5-11.5,11.2v43.5L59,77.6z"/>
	<path id="path100" class="st19" d="M59,77.6h11.7c11,0,20-8.7,20-19.4s-8.9-19.4-20-19.4H53.8c-6.4,0-11.5,5-11.5,11.2v43.5
		L59,77.6z"/>
</g>
</svg>
