<?xml version="1.0" encoding="UTF-8" standalone="no"?>
<!-- Created with Inkscape (http://www.inkscape.org/) -->

<svg
   xmlns:dc="http://purl.org/dc/elements/1.1/"
   xmlns:cc="http://creativecommons.org/ns#"
   xmlns:rdf="http://www.w3.org/1999/02/22-rdf-syntax-ns#"
   xmlns:svg="http://www.w3.org/2000/svg"
   xmlns="http://www.w3.org/2000/svg"
   xmlns:sodipodi="http://sodipodi.sourceforge.net/DTD/sodipodi-0.dtd"
   xmlns:inkscape="http://www.inkscape.org/namespaces/inkscape"
   width="127.60359"
   height="127.60359"
   viewBox="0 0 127.60359 127.60359"
   id="svg2"
   version="1.1"
   inkscape:version="0.92.2 5c3e80d, 2017-08-06"
   sodipodi:docname="logo_adaptive_foreground.svg"
   inkscape:export-filename="/home/nixdorf/Lokaler Speicher/Build/andOTP/app/src/main/ic_launcher-web.png"
   inkscape:export-xdpi="240"
   inkscape:export-ydpi="240">
  <defs
     id="defs4" />
  <sodipodi:namedview
     id="base"
     pagecolor="white"
     bordercolor="#666666"
     borderopacity="1.0"
     inkscape:pageopacity="0"
     inkscape:pageshadow="2"
     inkscape:zoom="3.2840935"
     inkscape:cx="-17.922132"
     inkscape:cy="35.673263"
     inkscape:document-units="px"
     inkscape:current-layer="layer1"
     showgrid="false"
     units="px"
     inkscape:window-width="1920"
     inkscape:window-height="1021"
     inkscape:window-x="0"
     inkscape:window-y="31"
     inkscape:window-maximized="1"
     inkscape:snap-bbox="true"
     inkscape:object-paths="true"
     inkscape:snap-bbox-midpoints="true"
     inkscape:snap-object-midpoints="false"
     inkscape:object-nodes="true"
     inkscape:snap-global="true"
     fit-margin-top="0"
     fit-margin-left="0"
     fit-margin-right="0"
     fit-margin-bottom="0" />
  <metadata
     id="metadata7">
    <rdf:RDF>
      <cc:Work
         rdf:about="">
        <dc:format>image/svg+xml</dc:format>
        <dc:type
           rdf:resource="http://purl.org/dc/dcmitype/StillImage" />
        <dc:title />
      </cc:Work>
    </rdf:RDF>
  </metadata>
  <g
     inkscape:label="Ebene 1"
     inkscape:groupmode="layer"
     id="layer1"
     transform="translate(-32.198206,-892.56036)">
    <path
       style="opacity:1;fill:#ffcc00;fill-opacity:1;fill-rule:evenodd;stroke:none;stroke-width:0.72619933;stroke-linecap:butt;stroke-linejoin:round;stroke-miterlimit:4;stroke-dasharray:none;stroke-dashoffset:0;stroke-opacity:1"
       d="M 63.802734 0 A 63.801796 63.801796 0 0 0 0 63.802734 A 63.801796 63.801796 0 0 0 63.802734 127.60352 A 63.801796 63.801796 0 0 0 127.60352 63.802734 A 63.801796 63.801796 0 0 0 63.802734 0 z M 63.804688 17.378906 A 46.424883 46.424883 0 0 1 108.35156 50.955078 L 19.228516 50.955078 A 46.424883 46.424883 0 0 1 63.804688 17.378906 z M 63.720703 71.193359 A 8.8181351 8.8181351 0 0 1 72.539062 80.011719 A 8.8181351 8.8181351 0 0 1 67.535156 87.955078 L 69.291016 91.808594 C 70.512076 94.486064 72.271302 98.340347 73.201172 100.37305 L 74.892578 104.06836 L 63.726562 104.06836 C 53.201806 104.06836 52.570604 104.04296 52.728516 103.61523 C 52.820656 103.36563 54.556828 99.509132 56.583984 95.044922 L 59.820312 87.910156 A 8.8181351 8.8181351 0 0 1 54.902344 80.011719 A 8.8181351 8.8181351 0 0 1 63.720703 71.193359 z "
       transform="translate(32.198206,892.56036)"
       id="path4271" />
  </g>
</svg>
